<svg id="Layer_3" data-name="Layer 3" xmlns="http://www.w3.org/2000/svg" viewBox="0 0 589.21 155.23"><defs><style>.cls-1{fill:#fff;}.cls-2{fill:#ffd720;}</style></defs><title>kombo_yellow</title><path class="cls-1" d="M148.62,42.26q20.12,0,33.72,14a46.55,46.55,0,0,1,13.59,33.63q0,19.78-13.59,33.55T148.62,137.2q-20.26,0-33.79-13.76T101.31,89.89a46.69,46.69,0,0,1,13.52-33.63Q128.35,42.25,148.62,42.26Zm0,20.27q-11.58,0-18.74,8a28,28,0,0,0-7.16,19.31A26.68,26.68,0,0,0,129.8,109q7.23,7.88,18.82,7.88,11.43.17,18.67-7.8a27.57,27.57,0,0,0,7.24-19.23,27.85,27.85,0,0,0-7.24-19.31Q160,62.52,148.62,62.53Z"></path><path class="cls-1" d="M299.24,61.82q-8.85,0-13.2,6.19T281.7,86.28v47.31H260.29V81.45q0-18.49,10-29.21c6.65-7.13,18.11-10.7,29.06-10.7h0c10.94,0,22.4,3.57,29.05,10.7s10,16.88,10,29.21v52.14H317V86.28q0-12.07-4.35-18.27t-13.19-6.19"></path><path class="cls-1" d="M242.42,61.82q-8.85,0-13.2,6.19t-4.34,18.27v47.31h-21.4V81.45q0-18.49,10-29.21c6.65-7.13,18.11-10.7,29-10.7h0c10.94,0,22.4,3.57,29.06,10.7s10,16.88,10,29.21v52.14h-21.4V86.28q0-12.07-4.34-18.27t-13.2-6.19"></path><path class="cls-1" d="M498,42.26q20.12,0,33.71,14a46.52,46.52,0,0,1,13.6,33.63q0,19.78-13.6,33.55T498,137.2q-20.28,0-33.79-13.76T450.69,89.89a46.69,46.69,0,0,1,13.52-33.63Q477.73,42.25,498,42.26Zm0,20.27q-11.58,0-18.75,8a28.06,28.06,0,0,0-7.16,19.31A26.76,26.76,0,0,0,479.17,109q7.24,7.88,18.83,7.88,11.43.17,18.67-7.8a27.57,27.57,0,0,0,7.24-19.23,27.85,27.85,0,0,0-7.24-19.31Q509.42,62.52,498,62.53Z"></path><path class="cls-1" d="M369.92,134.13H348.13L348.59,14h20.87Z"></path><path class="cls-1" d="M395.84,42.26q20.12,0,33.71,14a46.56,46.56,0,0,1,13.6,33.63q0,19.78-13.6,33.55T395.84,137.2q-20.28,0-33.8-13.76T348.53,89.89A46.68,46.68,0,0,1,362,56.26Q375.57,42.25,395.84,42.26Zm0,20.27q-11.59,0-18.75,8a28.06,28.06,0,0,0-7.16,19.31A26.68,26.68,0,0,0,377,109q7.25,7.88,18.83,7.88,11.42.17,18.66-7.8a27.57,27.57,0,0,0,7.24-19.23,27.85,27.85,0,0,0-7.24-19.31Q407.27,62.52,395.84,62.53Z"></path><rect class="cls-1" x="15" y="13.19" width="21.38" height="120.07"></rect><path class="cls-1" d="M75.09,68.28c1-.85,1.94-1.73,2.89-2.67,12.87-12.8,19.4-30.43,19.4-52.42H76c0,21.22-7.67,36.17-22.8,44.44-.48.26-1,.5-1.44.74A74.74,74.74,0,0,1,75.09,68.28Z"></path><path class="cls-1" d="M100.53,133.32l-21.37-.08a58.35,58.35,0,0,0-6.69-24.73C64.2,93.37,49.24,85.7,28,85.7V64.32c22,0,39.62,6.53,52.42,19.41C100.48,103.88,100.54,132.13,100.53,133.32Z"></path><circle class="cls-2" cx="563.47" cy="120.34" r="15.85"></circle></svg>